<?xml version="1.0" encoding="UTF-8"?>
<svg id="Layer_1" data-name="Layer 1" xmlns="http://www.w3.org/2000/svg" viewBox="0 0 956.97 140.73">
  <defs>
    <style>
      .cls-1 {
        fill: #e82127;
      }
    </style>
  </defs>
  <path class="cls-1" d="M70.37,140.73V28.15H28.15c-7.92,0-14.59-2.71-20.01-8.14C2.71,14.44,0,7.77,0,0H168.88c0,7.92-2.79,14.59-8.36,20.01-5.57,5.43-12.17,8.14-19.79,8.14h-42.22v112.58h-28.15Z"/>
  <path class="cls-1" d="M225.17,28.15c-7.92,0-14.59-2.71-20.01-8.14-5.43-5.57-8.14-12.24-8.14-20.01h168.88c0,7.92-2.79,14.59-8.36,20.01-5.57,5.43-12.17,8.14-19.79,8.14h-112.58Zm0,56.29c-7.92,0-14.59-2.71-20.01-8.14-5.43-5.57-8.14-12.24-8.14-20.01h168.88c0,7.92-2.79,14.59-8.36,20.01-5.57,5.43-12.17,8.14-19.79,8.14h-112.58Zm0,56.29c-7.92,0-14.59-2.71-20.01-8.14-5.43-5.57-8.14-12.24-8.14-20.01h168.88c0,7.92-2.79,14.59-8.36,20.01-5.57,5.42-12.17,8.14-19.79,8.14h-112.58Z"/>
  <path class="cls-1" d="M394.05,140.73c0-7.77,2.71-14.37,8.14-19.79,5.57-5.57,12.24-8.36,20.01-8.36h112.58v-28.15h-140.73V0h168.88c0,7.92-2.79,14.59-8.36,20.01-5.57,5.43-12.17,8.14-19.79,8.14h-112.58v28.15h140.73v84.44h-168.88Z"/>
  <path class="cls-1" d="M591.07,140.73V0h28.15V112.58h140.73c0,7.92-2.79,14.59-8.36,20.01-5.57,5.42-12.17,8.14-19.79,8.14h-140.73Z"/>
  <path class="cls-1" d="M816.24,28.15c-7.92,0-14.59-2.71-20.01-8.14-5.43-5.57-8.14-12.24-8.14-20.01h168.88c0,7.92-2.79,14.59-8.36,20.01-5.57,5.43-12.17,8.14-19.79,8.14h-112.58Zm-28.15,112.58V56.29h168.88v84.44h-28.15v-56.29h-112.58v56.29h-28.15Z"/>
</svg>